Coordinates
version=1
nRows=14
nColumns=63
inDegrees=yes

Units are S.I. units (second, meters, Newtons, ...)
If the header above contains a line with 'inDegrees', this indicates whether rotational values are in degrees (yes) or radians (no).

endheader
time	pelvis_tilt	pelvis_list	pelvis_rotation	pelvis_tx	pelvis_ty	pelvis_tz	hip_flexion_r	hip_adduction_r	hip_rotation_r	knee_angle_r	knee_angle_r_beta	ankle_angle_r	subtalar_angle_r	mtp_angle_r	hip_flexion_l	hip_adduction_l	hip_rotation_l	knee_angle_l	knee_angle_l_beta	ankle_angle_l	subtalar_angle_l	mtp_angle_l	L5_S1_Flex_Ext	L5_S1_Lat_Bending	L5_S1_axial_rotation	L4_L5_Flex_Ext	L4_L5_Lat_Bending	L4_L5_axial_rotation	L3_L4_Flex_Ext	L3_L4_Lat_Bending	L3_L4_axial_rotation	L2_L3_Flex_Ext	L2_L3_Lat_Bending	L2_L3_axial_rotation	L1_L2_Flex_Ext	L1_L2_Lat_Bending	L1_L2_axial_rotation	L1_T12_Flex_Ext	L1_T12_Lat_Bending	L1_T12_axial_rotation	Abs_r3	Abs_r2	Abs_r1	Abs_t1	Abs_t2	neck_flexion	neck_bending	neck_rotation	arm_flex_r	arm_add_r	arm_rot_r	elbow_flex_r	pro_sup_r	wrist_flex_r	wrist_dev_r	arm_flex_l	arm_add_l	arm_rot_l	elbow_flex_l	pro_sup_l	wrist_flex_l	wrist_dev_l
1.163636	-5.407766	-0.640861	74.117523	0.210566	0.938295	0.481231	2.260196	-3.095046	5.543929	7.395395	0.129074	28.077566	17.026047	0.000000	1.977532	1.889201	-13.668023	9.625151	0.167991	23.226546	-5.509143	0.000000	0.063121	-0.433934	3.689695	0.117222	-0.577132	3.920301	0.103702	-1.055067	3.920301	0.072141	-1.055067	3.228483	0.058614	-0.884878	2.997877	0.036067	-0.672164	2.767271	0.450868	-4.908748	20.520976	0.000000	0.000000	26.584631	-3.982624	-7.314435	40.936916	-13.539004	31.922616	32.768905	89.121054	-16.600557	1.218048	39.684920	-12.569455	29.158580	35.936439	88.764698	-5.782626	6.480021
1.181818	-5.415763	-0.497553	74.514313	0.210934	0.938560	0.480084	1.788928	-3.129072	5.270317	6.957307	0.121428	27.993160	17.003049	0.000000	1.803792	1.909330	-13.207933	9.655212	0.168515	23.056553	-5.664737	0.000000	0.054709	-0.457801	3.695196	0.101601	-0.608876	3.926145	0.089882	-1.113098	3.926145	0.062527	-1.113098	3.233296	0.050803	-0.933548	3.002346	0.031261	-0.709134	2.771397	0.390784	-5.178738	20.551570	0.000000	0.000000	26.572471	-4.094952	-8.392457	38.407998	-14.206410	25.720899	32.753786	91.636506	-17.655803	1.901793	38.476999	-14.267039	25.808461	36.528858	92.626776	-7.876959	7.170337
1.200000	-5.409748	-0.370989	75.006022	0.211040	0.938750	0.478708	1.275307	-3.156534	4.930761	6.473251	0.112980	27.897284	16.965259	0.000000	1.629387	1.928828	-12.625866	9.686307	0.169058	22.826212	-5.862424	0.000000	0.048060	-0.478255	3.673368	0.089252	-0.636079	3.902954	0.078958	-1.162829	3.902954	0.054928	-1.162829	3.214197	0.044628	-0.975257	2.984612	0.027461	-0.740817	2.755026	0.343288	-5.410114	20.430171	0.000000	0.000000	26.591327	-4.204311	-9.429504	35.839481	-14.721040	21.214862	32.291002	91.823978	-17.879774	2.388005	37.220734	-15.635870	25.902729	36.174039	94.011697	-9.623892	7.359771
1.218182	-5.396307	-0.255140	75.591890	0.210886	0.938819	0.477111	0.715183	-3.182745	4.553958	5.952627	0.103893	27.785532	16.859531	0.000000	1.450093	1.958995	-11.863747	9.721496	0.169672	22.546652	-6.166814	0.000000	0.042206	-0.495473	3.627408	0.078380	-0.658979	3.854121	0.069339	-1.204693	3.854121	0.048237	-1.204693	3.173982	0.039192	-1.010368	2.947269	0.024116	-0.767487	2.720556	0.301470	-5.604887	20.174557	0.000000	0.000000	26.643797	-4.328723	-10.411032	33.224263	-15.048350	18.456171	31.415982	89.891033	-17.434765	2.780322	35.900630	-16.726249	28.975670	35.121429	93.268242	-11.115247	7.021682
1.236364	-5.374249	-0.148499	76.258103	0.210474	0.938733	0.475318	0.112957	-3.205222	4.215653	5.406445	0.094360	27.634924	16.581254	0.000000	1.264770	1.999268	-10.914116	9.762768	0.170392	22.235906	-6.589610	0.000000	0.037118	-0.508325	3.560758	0.068931	-0.676072	3.783305	0.060981	-1.235940	3.783305	0.042422	-1.235940	3.115663	0.034468	-1.036576	2.893116	0.021209	-0.787395	2.670568	0.265128	-5.750270	19.803866	0.000000	0.000000	26.727895	-4.465534	-11.283108	30.611310	-15.176216	17.903800	30.134549	86.062435	-16.566104	3.158056	34.482379	-17.590439	34.378471	33.630461	90.856511	-12.410245	6.301928
1.254545	-5.341864	-0.038453	76.992265	0.209836	0.938485	0.473386	-0.532936	-3.220459	3.930148	4.853095	0.084702	27.432094	16.109260	0.000000	1.066256	2.043513	-9.801293	9.823311	0.171449	21.921785	-7.102805	0.000000	0.030581	-0.516087	3.473361	0.056793	-0.686395	3.690446	0.050242	-1.254813	3.690446	0.034952	-1.254813	3.039191	0.028398	-1.052404	2.822106	0.017474	-0.799418	2.605021	0.218440	-5.838076	19.317794	0.000000	0.000000	26.836081	-4.627950	-11.991600	28.092919	-15.077162	19.594742	28.418710	80.874776	-15.337368	3.548318	32.954602	-18.267292	41.635843	31.824103	86.928981	-13.335681	5.371857
1.272727	-5.299363	0.061462	77.797246	0.208944	0.938062	0.471301	-1.199069	-3.222509	3.690516	4.308516	0.075198	27.177945	15.435685	0.000000	0.865915	2.095714	-8.465110	9.888029	0.172579	21.585047	-7.788462	0.000000	0.024930	-0.518056	3.365294	0.046298	-0.689014	3.575625	0.040958	-1.259601	3.575625	0.028493	-1.259601	2.944632	0.023150	-1.056419	2.734301	0.014245	-0.802468	2.523970	0.178074	-5.860350	18.716756	0.000000	0.000000	26.970351	-4.798768	-12.500877	25.694054	-14.838881	23.843064	26.404072	74.527324	-13.974541	3.971560	31.264505	-18.785805	50.238473	29.841411	81.794905	-14.350651	4.154105
1.290909	-5.244346	0.153716	78.642020	0.207857	0.937462	0.469099	-1.869925	-3.206238	3.512744	3.789619	0.066141	26.888926	14.575609	0.000000	0.653815	2.146906	-6.976714	9.936160	0.173419	21.248783	-8.591178	0.000000	0.020037	-0.514108	3.238969	0.037210	-0.683764	3.441405	0.032918	-1.250003	3.441405	0.022900	-1.250003	2.834098	0.018606	-1.048370	2.631662	0.011449	-0.796354	2.429227	0.143120	-5.815697	18.014175	0.000000	0.000000	27.118658	-5.007120	-12.831503	23.445514	-14.455948	30.484221	24.103068	67.306402	-12.535726	4.333280	29.416994	-19.120741	59.742093	27.696983	75.645820	-15.281698	2.759850
1.309091	-5.168376	0.242865	79.530640	0.206584	0.936686	0.466800	-2.540925	-3.159050	3.413565	3.305837	0.057698	26.592180	13.518216	0.000000	0.431475	2.183348	-5.385439	9.974016	0.174079	20.965698	-9.434889	0.000000	0.015504	-0.503715	3.089873	0.028792	-0.669941	3.282990	0.025471	-1.224733	3.282990	0.017719	-1.224733	2.703639	0.014397	-1.027176	2.510522	0.008859	-0.780254	2.317405	0.110741	-5.698124	17.184946	0.000000	0.000000	27.271923	-5.200218	-12.940855	21.333125	-13.966442	39.268157	21.628683	59.462178	-11.044818	4.551941	27.414891	-19.229990	69.689771	25.396737	68.702941	-16.036138	1.223229
1.327273	-5.078650	0.326027	80.443962	0.205159	0.935729	0.464460	-3.192903	-3.085400	3.399141	2.862495	0.049960	26.309214	12.283689	0.000000	0.211047	2.206530	-3.751086	10.002968	0.174585	20.761482	-10.278535	0.000000	0.012379	-0.487650	2.917416	0.022990	-0.648574	3.099754	0.020338	-1.185671	3.099754	0.014148	-1.185671	2.552739	0.011496	-0.994415	2.370400	0.007074	-0.755369	2.188062	0.088425	-5.516390	16.225792	0.000000	0.000000	27.416317	-5.362726	-12.791237	19.375538	-13.380194	50.106699	18.995808	51.203511	-9.611085	4.516478	25.310267	-19.099061	79.846376	22.927229	61.270021	-16.491816	-0.436719
1.345455	-4.969718	0.406988	81.361533	0.203605	0.934608	0.462098	-3.817524	-2.982801	3.314120	2.469202	0.043096	26.090026	11.121075	0.000000	-0.017722	2.210973	-2.113685	10.004100	0.174604	20.659640	-11.107980	0.000000	0.010235	-0.465547	2.727112	0.019007	-0.619177	2.897557	0.016814	-1.131930	2.897557	0.011697	-1.131930	2.386223	0.009504	-0.949343	2.215779	0.005848	-0.721132	2.045334	0.073105	-5.266358	15.167379	0.000000	0.000000	27.545805	-5.497542	-12.407897	17.546620	-12.737115	62.332368	16.313749	42.821951	-8.327857	4.197942	23.165788	-18.691142	90.133501	20.332237	53.418685	-16.557359	-2.119167
1.363636	-4.836676	0.478310	82.254776	0.201978	0.933342	0.459734	-4.397999	-2.846679	3.242702	2.128039	0.037141	25.949772	9.976107	0.000000	-0.254034	2.184776	-0.550181	9.960087	0.173836	20.710455	-11.831293	0.000000	0.010229	-0.437717	2.526850	0.018997	-0.582164	2.684778	0.016805	-1.064266	2.684778	0.011691	-1.064266	2.210994	0.009499	-0.892593	2.053065	0.005845	-0.678024	1.895137	0.073066	-4.951546	14.053580	0.000000	0.000000	27.660917	-5.592092	-11.829375	15.803852	-12.052513	75.728337	13.634499	34.532632	-7.249774	3.606422	21.039806	-18.007256	100.326412	17.695615	45.403048	-16.210679	-3.676457
1.381818	-4.686787	0.538463	83.108102	0.200328	0.931985	0.457389	-4.926090	-2.684015	3.090438	1.835978	0.032044	25.914379	8.993248	0.000000	-0.500765	2.133723	0.922099	9.853747	0.171980	20.909234	-12.472068	0.000000	0.012294	-0.405993	2.326090	0.022832	-0.539971	2.471471	0.020199	-0.987133	2.471471	0.014051	-0.987133	2.035329	0.011417	-0.827902	1.889948	0.007025	-0.628884	1.744568	0.087818	-4.592680	12.937017	0.000000	0.000000	27.766376	-5.675115	-11.141392	14.085261	-11.368278	89.037196	11.158459	26.617594	-6.371252	2.812307	18.952554	-17.105016	110.057313	15.169320	37.404378	-15.433529	-4.951682
1.400000	-4.530980	0.580462	83.899023	0.198708	0.930609	0.455098	-5.389323	-2.507722	2.871550	1.586006	0.027681	25.978905	8.191458	0.000000	-0.751819	2.065428	2.259266	9.680273	0.168953	21.242333	-12.998632	0.000000	0.017277	-0.372605	2.132364	0.032086	-0.495564	2.265637	0.028385	-0.905951	2.265637	0.019746	-0.905951	1.865818	0.016044	-0.759816	1.732546	0.009872	-0.577165	1.599273	0.123411	-4.214979	11.859568	0.000000	0.000000	27.861625	-5.724443	-10.400031	12.395811	-10.705806	101.669446	9.022095	19.337286	-5.659341	1.881941	16.918216	-16.081072	119.012497	12.925426	29.663552	-14.295790	-5.826060
